PathFileType	4	(X/Y/Z)	D:\TRACE\v60_Jaco2_6-2-23\BothDRS_Motion1_1-platform.trc
DataRate	CameraRate	NumFrames	NumMarkers	Units	OrigDataRate	OrigDataStartFrame	OrigNumFrames
100.00	100.00	      42	5	mm	100.00	1715	      6857
Frame#	Time	Left_Front			Right_Front			Left_Aft			Right_Aft			Post			
		X1	Y1	Z1	X2	Y2	Z2	X3	Y3	Z3	X4	Y4	Z4	X5	Y5	Z5	

1715	17.140	-831.35199	30.64921	-633.45605	738.55682	31.08631	-638.29999	-739.93237	-6.61305	501.60886	702.77289	-8.72533	510.85168	-44.71479	1339.05725	-914.09314	
1716	17.150	-832.04108	30.37485	-633.07355	737.85699	30.96929	-638.33319	-740.76044	-6.36061	501.24106	702.01764	-8.32005	510.86237	-45.38719	1338.74072	-914.46155	
1717	17.160	-832.99493	30.18097	-633.19757	736.91522	30.92224	-638.42737	-741.60242	-6.12949	501.31503	701.51801	-8.09581	510.71820	-46.32639	1338.32288	-915.13983	
1718	17.170	-833.79224	29.65694	-633.57611	736.36212	30.64696	-638.42157	-742.42578	-5.91457	501.26447	700.49567	-8.12873	510.69348	-46.82371	1338.01428	-915.82031	
1719	17.180	-834.89856	29.11687	-633.64532	735.54065	30.02651	-638.51910	-743.23169	-5.90720	501.30908	699.66064	-7.69008	510.59149	-47.99040	1337.70239	-916.21454	
1720	17.190	-835.71039	29.07870	-633.72754	734.49371	29.76339	-638.74091	-743.37537	-6.17948	500.93576	698.56152	-7.83984	510.58475	-48.99896	1337.23853	-916.86194	
1721	17.200	-835.97906	28.88939	-633.53510	733.75848	29.71729	-638.70813	-744.40521	-5.81969	500.93405	697.97943	-7.76499	510.49146	-49.39227	1336.81238	-917.43256	
1722	17.210	-836.61133	28.85822	-633.44696	733.11511	29.67473	-638.71558	-745.19769	-5.47155	500.94934	697.35559	-7.33008	510.37891	-50.42618	1336.64673	-918.36865	
1723	17.220	-837.77118	28.30133	-633.51044	732.53058	29.47002	-638.66132	-745.60266	-5.29256	500.88416	696.51202	-6.99027	510.35223	-50.95155	1336.40540	-919.23193	
1724	17.230	-838.77484	27.99808	-633.79633	731.73547	29.03673	-638.82935	-746.50543	-5.16976	500.87054	695.96539	-6.97220	510.31897	-51.57218	1335.78625	-919.69989	
1725	17.240	-839.23871	27.69748	-633.96112	730.74457	28.65796	-639.00574	-747.45728	-5.26775	500.75293	694.67902	-6.89036	510.40387	-52.55883	1335.35022	-920.36786	
1726	17.250	-839.81604	27.45576	-634.01184	730.15259	28.37985	-638.83514	-747.94446	-5.15543	500.75888	694.25464	-6.80068	510.33823	-53.12476	1334.81531	-920.71100	
1727	17.260	-840.55719	27.27330	-633.67651	729.71777	28.17791	-638.89325	-748.49622	-4.73773	500.68842	693.47223	-6.70824	510.28372	-53.72166	1334.54541	-921.11371	
1728	17.270	-841.02924	27.14235	-633.80109	728.98041	28.00614	-638.90704	-749.93158	-3.95198	500.86874	692.78107	-6.36183	510.16882	-54.34744	1334.30688	-921.58795	
1729	17.280	-842.10248	26.82112	-634.02002	728.33606	27.80832	-639.01971	-751.04333	-3.04489	500.58655	692.24896	-5.98740	510.19711	-55.19587	1333.68591	-922.24231	
1730	17.290	-842.83008	26.41954	-634.36383	727.53284	27.37298	-639.25250	-751.16479	-3.47974	501.02838	691.57245	-5.86449	510.13397	-55.92118	1333.34290	-922.60364	
1731	17.300	-843.33606	26.27039	-634.38898	726.93799	26.97984	-639.29242	-750.88544	-4.45622	500.46674	690.79059	-5.71680	510.11319	-56.66632	1333.01892	-923.19006	
1732	17.310	-843.74097	26.05365	-634.27325	726.36719	26.80370	-639.26385	-751.75220	-4.13281	500.29953	690.21588	-5.37937	510.10840	-57.30246	1332.55762	-923.96710	
1733	17.320	-844.03455	25.89838	-634.22980	725.79956	26.60214	-639.28290	-752.33484	-3.74638	500.35284	689.98535	-5.19858	509.99365	-57.76773	1332.10168	-924.79907	
1734	17.330	-844.88135	25.22863	-634.24591	725.33173	26.26988	-639.48737	-752.93671	-3.36824	500.22711	689.54956	-4.92342	509.89163	-58.06148	1331.58655	-925.82220	
1735	17.340	-845.48639	24.86683	-634.43799	724.65485	25.85795	-639.71240	-753.43677	-3.07794	500.18185	688.84802	-4.59595	509.74335	-58.41127	1331.10986	-926.39020	
1736	17.350	-846.01495	24.66049	-634.63171	724.04211	25.34414	-639.75037	-753.94141	-2.67595	500.06143	688.35345	-4.43843	509.72217	-59.90843	1330.75696	-927.31750	
1737	17.360	-846.59637	24.11485	-634.83026	723.89539	25.13328	-639.71289	-754.63635	-2.59433	500.10693	687.67175	-4.31982	509.71243	-59.63602	1330.19861	-928.10895	
1738	17.370	-847.17206	23.83076	-634.81567	723.32361	24.75276	-639.81274	-755.15942	-2.43548	500.15945	687.01862	-4.00263	509.66687	-60.28479	1329.61328	-928.85730	
1739	17.380	-847.57257	23.47933	-634.94238	722.70465	24.46231	-639.87653	-755.47467	-2.15672	500.06964	686.87677	-3.70616	509.55042	-61.09454	1329.36743	-929.52209	
1740	17.390	-847.80328	23.33394	-634.99390	722.21570	24.16241	-640.02557	-755.98309	-1.83495	499.95407	686.47870	-3.45677	509.47333	-61.28420	1328.98584	-930.02142	
1741	17.400	-848.09088	22.86493	-634.90149	721.92188	23.85890	-640.11389	-756.19324	-1.58125	499.89243	685.83063	-3.23048	509.27377	-61.69515	1328.35571	-930.42261	
1742	17.410	-848.53839	22.25869	-635.19281	721.46466	23.34590	-640.07159	-756.50983	-1.40159	499.74164	685.52612	-2.91376	509.15134	-62.06865	1327.71729	-931.25574	
1743	17.420	-848.81433	22.17864	-635.10059	721.13220	23.10965	-640.14807	-756.48462	-1.72364	499.80573	685.21918	-2.82755	508.99905	-62.19450	1327.35266	-932.08075	
1744	17.430	-849.14655	21.99988	-635.27484	720.77960	22.69195	-640.33240	-756.91614	-1.39947	499.84253	684.68561	-2.90233	508.90836	-62.37958	1326.85034	-932.57410	
1745	17.440	-849.58301	21.84363	-635.35107	720.45740	22.39909	-640.48883	-757.25909	-1.02578	499.86072	684.14246	-2.80879	508.77722	-63.13397	1326.22974	-933.70715	
1746	17.450	-849.99316	21.19732	-635.30542	720.24622	22.04324	-640.59570	-757.50665	-0.65311	499.67859	683.67377	-2.61343	508.14709	-62.91480	1325.90955	-934.64502	
1747	17.460	-850.17462	20.57165	-635.44666	720.07739	21.70451	-640.69757	-757.74927	-0.43406	499.58374	683.20203	-2.79626	507.69400	-63.23954	1325.43274	-935.60553	
1748	17.470	-850.29913	20.19677	-635.59668	719.96393	21.29069	-640.82581	-758.09552	-0.03292	499.35419	684.03351	-1.60233	508.47018	-63.77134	1324.74524	-936.52325	
1749	17.480	-850.57068	19.89549	-635.66064	719.82336	20.88453	-640.86041	-758.24567	0.21743	499.25168	683.67346	-1.33494	508.31198	-63.65076	1323.96716	-937.51178	
1750	17.490	-850.70917	19.73396	-635.82794	719.73828	20.37970	-640.94727	-758.65369	0.78018	499.18192	683.49579	-0.93580	508.32178	-63.70520	1323.38879	-938.22528	
1751	17.500	-850.87665	19.55897	-635.90747	719.55988	20.10251	-641.09546	-758.79657	1.04635	499.08994	683.23492	-0.67464	508.18237	-63.87566	1322.93726	-939.36603	
1752	17.510	-851.18420	19.11779	-635.98163	719.35223	19.71964	-641.28540	-758.76141	1.24654	498.95505	683.20172	-0.35711	508.00568	-64.07447	1322.27014	-940.26154	
1753	17.520	-851.16290	18.57066	-636.12592	719.36481	19.21592	-641.34210	-758.92023	1.66968	498.69110	683.21674	-0.18139	507.87030	-64.16660	1321.69690	-940.72150	
1754	17.530	-851.07635	18.02822	-636.45044	719.39648	18.41179	-641.40314	-759.10010	1.99486	498.61026	683.16931	0.17445	507.87817	-64.12915	1321.21814	-941.58008	
1755	17.540	-851.05725	17.59495	-636.62018	719.33716	18.25537	-641.44379	-759.37158	2.62488	498.12119	683.03162	0.58813	507.81857	-64.66571	1320.49402	-942.59680	
1756	17.550	-851.06958	17.35125	-636.79126	719.11731	17.86024	-641.56732	-758.92017	2.15117	498.64899	682.93188	0.78716	507.80508	-64.45843	1319.63782	-943.26385	
